<?xml version="1.0" encoding="UTF-8"?>
<svg id="_图层_1" data-name="图层_1" xmlns="http://www.w3.org/2000/svg" version="1.1" viewBox="0 0 90 90">
  <!-- Generator: Adobe Illustrator 29.0.1, SVG Export Plug-In . SVG Version: 2.1.0 Build 192)  -->
  <defs>
    <style>
      .st0 {
        stroke: #09d;
      }

      .st0, .st1, .st2, .st3, .st4, .st5, .st6, .st7, .st8, .st9 {
        stroke-miterlimit: 10;
      }

      .st0, .st2, .st3, .st4, .st6, .st7, .st8, .st9 {
        fill: none;
        stroke-width: 2.6px;
      }

      .st1 {
        stroke: #fff;
        stroke-width: .4px;
      }

      .st1, .st10 {
        fill-rule: evenodd;
      }

      .st1, .st5 {
        fill: #ee9f3e;
      }

      .st2 {
        stroke: #947262;
      }

      .st3 {
        stroke: #f26363;
      }

      .st10 {
        fill: #f26363;
      }

      .st11 {
        fill: #09d;
      }

      .st4 {
        stroke: #008c72;
      }

      .st12 {
        fill: #fff;
      }

      .st5 {
        stroke-width: 1.6px;
      }

      .st5, .st6 {
        stroke: #ee9f3e;
      }

      .st13 {
        fill: #919151;
      }

      .st14 {
        fill: #a7a7ad;
      }

      .st7 {
        stroke: #d93baf;
      }

      .st8 {
        stroke: #a7a7ad;
      }

      .st9 {
        stroke: #919151;
      }

      .st15 {
        fill: #008c72;
      }

      .st16 {
        display: none;
      }
    </style>
  </defs>
  <g id="Background">
    <rect class="st12" x="1.5" y="1.5" width="87" height="87" rx="3.8" ry="3.8"/>
  </g>
  <g id="Water" class="st16">
    <rect class="st0" x="1.5" y="1.5" width="87" height="87" rx="3.8" ry="3.8"/>
    <g>
      <path class="st11" d="M45,59.3c8.6,0,15.7-7,15.7-15.7s-12.4-28.2-13.8-30.4l-1.9-2.8-1.9,2.8c-1.4,2.1-13.8,21-13.8,30.4s7,15.7,15.7,15.7ZM45,18.7c4.3,6.8,11.2,19.2,11.2,25s-5,11.2-11.2,11.2-11.2-5-11.2-11.2,6.9-18.1,11.2-25Z"/>
      <path class="st11" d="M71.3,64.1c-2.2-1.2-4.7-2.5-9.5-2.5s-7.3,1.3-9.5,2.5c-2,1.1-3.7,2-7.3,2s-5.4-.9-7.3-2c-2.2-1.2-4.7-2.5-9.5-2.5s-7.3,1.3-9.5,2.5c-2,1.1-3.7,2-7.3,2v4.5c4.8,0,7.3-1.3,9.5-2.5,2-1.1,3.7-2,7.3-2s5.4.9,7.3,2c2.2,1.2,4.7,2.5,9.5,2.5s7.3-1.3,9.5-2.5c2-1.1,3.7-2,7.3-2s5.4.9,7.3,2c2.2,1.2,4.7,2.5,9.5,2.5v-4.5c-3.6,0-5.4-.9-7.3-2Z"/>
      <path class="st11" d="M61.8,70.5c-4.8,0-7.3,1.3-9.5,2.5-2,1.1-3.7,2-7.3,2s-5.4-.9-7.3-2c-2.2-1.2-4.7-2.5-9.5-2.5s-7.3,1.3-9.5,2.5c-2,1.1-3.7,2-7.3,2v4.5c4.8,0,7.3-1.3,9.5-2.5,2-1.1,3.7-2,7.3-2s5.4.9,7.3,2c2.2,1.2,4.7,2.5,9.5,2.5s7.3-1.3,9.5-2.5c2-1.1,3.7-2,7.3-2s5.4.9,7.3,2c2.2,1.2,4.7,2.5,9.5,2.5v-4.5c-3.6,0-5.4-.9-7.3-2-2.2-1.2-4.7-2.5-9.5-2.5Z"/>
    </g>
  </g>
  <g id="Transportation" class="st16">
    <rect class="st6" x="1.5" y="1.5" width="87" height="87" rx="3.8" ry="3.8"/>
    <g>
      <path class="st1" d="M67.6,47.3c-.4,0-1,0-1.6.2-1.4.3-2.8.6-3.9,1.3-1.1.6-2,1.6-2.6,3.3-.2.6,0,1.2,0,1.5q.2.3.6.2l8.2-1.7c.8-.2.9-.7,1-1.3,0-.8,0-1.8-.3-2.5-.3-.8-.8-.9-1.4-.9h0ZM67.6,45.2c1,0,1.8.3,2.4.8s.9,1.1,1.1,1.7c.2.8.5,2.1.4,3.3,0,.6-.2,1.3-.7,1.9-.4.6-1.1,1-2,1.2l-8.2,1.7c-1.2.3-2.4-.3-2.9-1.3-.5-.9-.6-2.1-.2-3.2.7-2.1,2.1-3.6,3.5-4.4,1.5-.9,3.1-1.2,4.5-1.5h0c.8,0,1.4-.2,2-.2h0Z"/>
      <path class="st1" d="M22.4,47.3c.4,0,1,0,1.6.2,1.4.3,2.8.6,3.9,1.3,1.1.6,2,1.6,2.6,3.3.2.6.1,1.2,0,1.5q-.2.3-.6.2l-8.2-1.7c-.8-.2-.9-.7-1-1.3-.1-.8.1-1.8.3-2.5.3-.8.8-.9,1.4-.9h0ZM22.4,45.2c-1,0-1.8.3-2.4.8s-.9,1.1-1.1,1.7c-.2.8-.5,2.1-.4,3.3,0,.6.2,1.3.7,1.9.4.6,1.1,1,2,1.2l8.2,1.7c1.2.3,2.4-.3,2.9-1.3.5-.9.6-2.1.2-3.2-.7-2.1-2.1-3.6-3.5-4.4-1.5-.9-3.1-1.2-4.5-1.5h0c-.8,0-1.4-.2-2-.2h-.1Z"/>
      <path class="st1" d="M45,23.6c3.9,0,7.6,0,11.8.8.7.1,1.2.7,1.6,1.5,1.5,2.7,2.5,5.8,3.4,8.9-4,.4-10.9,1.1-16.8,1.1s-12.8-.7-16.8-1.1c.9-3.1,1.9-6.2,3.4-8.9.4-.8.9-1.3,1.6-1.5,3.6-.8,7.7-.8,11.8-.8ZM32.8,22.5c-1.5.3-2.4,1.5-2.9,2.5-1.8,3.3-3,6.8-4,10.5-.2.6.2,1.2.8,1.3,3.7.4,11.8,1.2,18.3,1.2s14.6-.8,18.3-1.2c.6,0,1-.7.8-1.3-1.1-3.7-2.1-7.3-4-10.5-.8-1.3-1.7-2.3-2.9-2.5-4.4-.8-8.2-.8-12.3-.8s-8.2,0-12.1.8Z"/>
      <path class="st5" d="M64.9,66.9h7v3.8c0,.6-.4,1-.7,1h-5.6c-.3,0-.7-.3-.7-1,0,0,0-3.8,0-3.8ZM18.1,66.9h7v3.8c0,.6-.4,1-.7,1h-5.6c-.3,0-.7-.3-.7-1,0,0,0-3.8,0-3.8ZM45,18.4c4.3,0,8.4,0,12.5.4,4,.5,5.7,2.3,7.1,5.7,1.6,3.8,3.2,8.1,4.8,12.2.2.5.7.8,1.2.8h4.2c1,0,1.2.4,1.2,1.1,0,1.7-.5,3-2.5,4.2-.6.3-.8,1.1-.5,1.7l.6,1.2c.8,1.6,1.3,3.3,1.3,4.7v10.4c0,.9-.3,1.9-.7,2.7-.4.7-.8.9-1,.9H16.8c-.2,0-.6-.2-1-.9-.4-.7-.7-1.8-.7-2.7v-10.4c0-1.3.5-3,1.3-4.7l.6-1.2c.3-.6,0-1.3-.5-1.7-2-1.1-2.6-2.5-2.5-4.2,0-1,.5-1.1,1.2-1.1h4.2c.5,0,1-.3,1.2-.8,1.7-4,3.2-8.3,4.8-12.2,1.4-3.4,3.1-5.2,7.1-5.7,4.1-.5,8.1-.4,12.5-.4ZM45,15.8c-4.3,0-8.5,0-12.8.5-4.8.6-7.5,3.4-9.1,7.2-1.6,3.7-3,7.7-4.5,11.4h-3.3c-1.1,0-2.1.3-2.8,1-.7.7-1,1.7-1,2.7,0,2,1,4,2.9,5.5-.9,2-1.8,4.4-1.8,6.3v10.4c.1,2.6.9,4.2,3,5.3v4.7c0,1.8,1.4,3.5,3.3,3.5h5.6c1.9,0,3.3-1.7,3.3-3.5v-3.8h34.7v3.8c0,1.8,1.4,3.5,3.2,3.5h5.6c1.9,0,3.3-1.7,3.3-3.5v-4.7c2.2-1,3-3.1,3-5.3v-10.4c0-2.4-.8-4.3-1.8-6.3,1.8-1.5,2.9-3.5,2.9-5.5s-.3-2-1-2.7-1.7-1-2.8-1h-3.4c-1.5-3.7-3-7.7-4.5-11.4-1.6-3.8-4.3-6.6-9.2-7.2-4.3-.5-8.5-.5-12.8-.5h0Z"/>
      <path class="st1" d="M39.8,56.5h10.4c.9,0,1.5.7,1.5,1.5s-.7,1.5-1.5,1.5h-10.4c-.9,0-1.5-.7-1.5-1.5s.7-1.5,1.5-1.5ZM39.8,54.4c-2,0-3.7,1.7-3.7,3.7s1.7,3.7,3.7,3.7h10.4c2,0,3.7-1.7,3.7-3.7s-1.7-3.7-3.7-3.7c0,0-10.4,0-10.4,0Z"/>
    </g>
  </g>
  <g id="Tourism" class="st16">
    <rect class="st4" x="1.5" y="1.5" width="87" height="87" rx="3.8" ry="3.8"/>
    <path class="st15" d="M45,12c-18.2,0-33,14.8-33,33s14.8,33,33,33,33-14.6,33-33S63.3,12,45,12ZM45,16.7c8.3,0,15.8,3.6,21,9.4h0l-5.7,3.8c-.6.4-.9,1-1,1.7l-1.2,9.4v.3l-3.8,7.7c-.4.7-1.7.5-1.7-.3l-1-9.5c0-.4-.2-.8-.4-1.1l-3.7-5.6c-.2-.3-.2-.8,0-1.1l2.4-3.1c.4-.6.6-1.3.4-2-.2-.7-.7-1.3-1.3-1.6l-12.7-5.8-.2-.7c2.8-1,5.9-1.5,9-1.5h0ZM48.4,65l-1.4,5.6c-.2,1,0,2,1,2.5h0c-1,0-2,.2-3,.2-10.4,0-19.6-5.7-24.4-14.2h0l3.1-2.7c.4-.3.9-.4,1.4-.2l8.7,4.3c.4.2.9.3,1.4.2l8.7-1.4c.5,0,.9,0,1.2.5l3.1,4.1c.2.3.3.7.2,1.1ZM54.2,71.7h0s0,0-.2-.2l-2.1-1.4,1-3.9c.4-1.7,0-3.6-1-5l-3.1-4.1c-1.3-1.8-3.6-2.7-5.8-2.3l-7.9,1.3-8-4c-2.1-1.1-4.7-.8-6.6.8l-2.1,1.8c-1.1-3-1.7-6.3-1.7-9.7,0-10.7,6-20.1,14.9-24.9l.3,1.1c.2.7.7,1.3,1.3,1.6l11.1,5-.6.8c-1.4,1.9-1.5,4.5-.2,6.5l3.4,5.1.9,8.9c.3,2.9,2.7,5.1,5.6,5.1s4.1-1.2,5-3.1l3.8-7.7c.3-.6.5-1.2.5-1.8l1-8.4,5-3.4c2.8,4.4,4.4,9.6,4.4,15.1,0,12.3-8,22.8-19,26.7h0Z"/>
  </g>
  <g id="Service" class="st16">
    <rect class="st9" x="1.5" y="1.5" width="87" height="87" rx="3.8" ry="3.8"/>
    <path class="st13" d="M71.6,45.8h0c1.1,0,2,.9,2,2v10.6c0,1.1-.9,2-2,2h-8.1v-14.6s8.1,0,8.1,0ZM26.4,45.8v14.6h-8.1c-1.1,0-2-.9-2-2v-10.6c0-1.1.9-2,2-2,0,0,8.1,0,8.1,0ZM45,12.1h0c-14.5,0-26.3,11.8-26.3,26.3v2.8h-.4c-3.6,0-6.6,3-6.6,6.6v10.6c0,3.6,2.9,6.6,6.6,6.6h10.5c.6,0,1.2-.2,1.6-.7.4-.4.7-1,.7-1.6v-19.2c0-.6-.2-1.2-.7-1.7-.4-.4-1-.7-1.6-.7h-5.4v-2.8c0-12,9.7-21.7,21.7-21.7s21.7,9.7,21.7,21.7v2.8h-5.4c-.6,0-1.2.2-1.6.7-.4.4-.7,1-.7,1.7v19.2c0,.6.2,1.2.7,1.6.4.4,1,.7,1.7.7h2.7c-1.2,1.8-2.5,3.3-4.4,4.2-1.2.6-2.7,1.1-4.4,1.4-.7-.6-1.5-.9-2.4-.9s-.2,0-.3,0l-5.9.5c-2.1.2-3.7,2-3.5,4.1.2,2,1.8,3.5,3.8,3.5s.2,0,.3,0l5.9-.5c1.4,0,2.6-1,3.1-2.2h0c2-.4,3.9-1,5.5-1.8,4-2,6.1-5.5,7.8-8.4h2.3c3.6,0,6.6-3,6.6-6.6v-10.6c0-3.6-2.9-6.6-6.6-6.6h-.4v-2.8c0-14.5-11.8-26.3-26.3-26.3h-.3Z"/>
  </g>
  <g id="Restroom" class="st16">
    <rect class="st8" x="1.5" y="1.5" width="87" height="87" rx="3.8" ry="3.8"/>
    <g>
      <path class="st14" d="M28.5,34.9c5.3,0,9.6-4.3,9.6-9.6s-4.3-9.6-9.6-9.6-9.6,4.3-9.6,9.6,4.3,9.6,9.6,9.6ZM28.5,19.9c3,0,5.4,2.5,5.4,5.5s-2.4,5.5-5.4,5.5-5.4-2.4-5.4-5.5,2.4-5.5,5.4-5.5Z"/>
      <path class="st14" d="M42.8,37.5H14.1c-.7,0-1.3.4-1.7.9-.4.6-.4,1.3-.2,2l14.4,32.6c.3.7,1.1,1.2,1.9,1.2s1.6-.5,1.9-1.2l14.4-32.6c.3-.6.2-1.4-.2-2s-1-.9-1.7-.9h0ZM28.5,67.1l-11.2-25.5h22.4s-11.2,25.5-11.2,25.5Z"/>
      <path class="st14" d="M61.5,34.9c5.3,0,9.6-4.3,9.6-9.6s-4.3-9.6-9.6-9.6-9.6,4.3-9.6,9.6,4.3,9.6,9.6,9.6ZM61.5,19.9c3,0,5.4,2.5,5.4,5.5s-2.4,5.5-5.4,5.5-5.4-2.4-5.4-5.5,2.4-5.5,5.4-5.5Z"/>
      <path class="st14" d="M77.8,71.4l-14.4-32.6c-.3-.7-1.1-1.2-1.9-1.2s-1.6.5-1.9,1.2l-14.4,32.6c-.3.6-.2,1.4.2,2s1,.9,1.7.9h28.7c.7,0,1.3-.4,1.7-.9.4-.6.4-1.3.2-2h.1ZM50.3,70.1l11.2-25.5,11.2,25.5s-22.4,0-22.4,0Z"/>
    </g>
  </g>
  <g id="Recreation" class="st16">
    <rect class="st7" x="1.5" y="1.5" width="87" height="87" rx="3.8" ry="3.8"/>
  </g>
  <g id="Mountain" class="st16">
    <rect class="st2" x="1.5" y="1.5" width="87" height="87" rx="3.8" ry="3.8"/>
  </g>
  <g id="Commerce" class="st16">
    <rect class="st3" x="1.5" y="1.5" width="87" height="87" rx="3.8" ry="3.8"/>
    <g>
      <path class="st10" d="M28.5,28.5h-2.8c-3.6,0-6.7,2.8-7,6.4-.9,8.7-2.8,28.3-3.8,37.7-.2,2,.5,4,1.8,5.5,1.3,1.5,3.2,2.3,5.2,2.3h46.2c2,0,3.9-.8,5.2-2.3,1.3-1.5,2-3.5,1.8-5.5l-3.8-37.7c-.4-3.6-3.4-6.4-7-6.4h-2.8v-2.4c0-9.1-7.4-16.5-16.5-16.5s-16.5,7.4-16.5,16.5c0,0,0,2.4,0,2.4ZM25.7,33.2h38.6c1.2,0,2.2.9,2.3,2.1l3.8,37.7c0,.7-.2,1.3-.6,1.8s-1.1.8-1.7.8H21.9c-.7,0-1.3-.3-1.7-.8-.4-.5-.7-1.2-.6-1.8.9-9.4,2.9-29.1,3.8-37.7.1-1.2,1.1-2.1,2.3-2.1ZM56.8,28.5v-2.4c0-6.5-5.3-11.8-11.8-11.8h0c-6.5,0-11.8,5.3-11.8,11.8v2.4s23.6,0,23.6,0Z"/>
      <path class="st10" d="M45,61.5c-9.1,0-16.5-7.4-16.5-16.5v-4.7c0-1.3,1.1-2.4,2.4-2.4s2.4,1.1,2.4,2.4v4.7c0,6.5,5.3,11.8,11.8,11.8h0c6.5,0,11.8-5.3,11.8-11.8v-4.7c0-1.3,1.1-2.4,2.4-2.4s2.4,1.1,2.4,2.4v4.7c0,9.1-7.4,16.5-16.5,16.5h-.2Z"/>
    </g>
  </g>
</svg>