<?xml version="1.0" encoding="UTF-8"?>
<svg id="_图层_1" data-name="图层_1" xmlns="http://www.w3.org/2000/svg" version="1.1" viewBox="0 0 90 90">
  <!-- Generator: Adobe Illustrator 29.1.0, SVG Export Plug-In . SVG Version: 2.1.0 Build 142)  -->
  <defs>
    <style>
      .st0, .st1 {
        stroke: #09d;
      }

      .st0, .st1, .st2, .st3, .st4, .st5, .st6, .st7, .st8, .st9, .st10, .st11 {
        stroke-miterlimit: 10;
      }

      .st0, .st3, .st4, .st5, .st7, .st8, .st9, .st11 {
        fill: none;
        stroke-width: 6px;
      }

      .st1 {
        fill: #09d;
        stroke-width: .5px;
      }

      .st2 {
        stroke: #fff;
        stroke-width: .4px;
      }

      .st2, .st12 {
        fill-rule: evenodd;
      }

      .st2, .st6 {
        fill: #ee9f3e;
      }

      .st3 {
        stroke: #947262;
      }

      .st4 {
        stroke: #f26363;
      }

      .st12 {
        fill: #f26363;
      }

      .st5 {
        stroke: #008c72;
      }

      .st13 {
        fill: #fff;
      }

      .st6 {
        stroke-width: 1.6px;
      }

      .st6, .st7 {
        stroke: #ee9f3e;
      }

      .st14 {
        fill: #919151;
      }

      .st15 {
        fill: #d93baf;
      }

      .st16 {
        fill: #a7a7ad;
      }

      .st8 {
        stroke: #a7a7ad;
      }

      .st9 {
        stroke: #d93baf;
      }

      .st10 {
        stroke: #000;
      }

      .st11 {
        stroke: #919151;
      }

      .st17 {
        fill: #008c72;
      }

      .st18 {
        display: none;
      }

      .st19 {
        fill: #947262;
      }
    </style>
  </defs>
  <g id="POI_x5F_Logo">
    <g id="Background">
      <rect class="st13" x="1.5" y="1.5" width="87" height="87" rx="3.8" ry="3.8"/>
    </g>
    <g id="Water" class="st18">
      <rect class="st0" x="3.3" y="3.3" width="83.4" height="83.4" rx="3.8" ry="3.8"/>
      <g>
        <path class="st1" d="M45,57.5c7.5,0,13.7-6.1,13.7-13.7s-10.8-24.6-12-26.5l-1.7-2.4-1.7,2.4c-1.2,1.8-12,18.3-12,26.5s6.1,13.7,13.7,13.7ZM45,22.1c3.7,5.9,9.8,16.7,9.8,21.8s-4.4,9.8-9.8,9.8-9.8-4.4-9.8-9.8,6-15.8,9.8-21.8Z"/>
        <path class="st1" d="M67.9,61.7c-1.9-1-4.1-2.2-8.3-2.2s-6.4,1.1-8.3,2.2c-1.7,1-3.2,1.7-6.4,1.7s-4.7-.8-6.4-1.7c-1.9-1-4.1-2.2-8.3-2.2s-6.4,1.1-8.3,2.2c-1.7,1-3.2,1.7-6.4,1.7v3.9c4.2,0,6.4-1.1,8.3-2.2,1.7-1,3.2-1.7,6.4-1.7s4.7.8,6.4,1.7c1.9,1,4.1,2.2,8.3,2.2s6.4-1.1,8.3-2.2c1.7-1,3.2-1.7,6.4-1.7s4.7.8,6.4,1.7c1.9,1,4.1,2.2,8.3,2.2v-3.9c-3.1,0-4.7-.8-6.4-1.7Z"/>
        <path class="st1" d="M59.6,67.3c-4.2,0-6.4,1.1-8.3,2.2-1.7,1-3.2,1.7-6.4,1.7s-4.7-.8-6.4-1.7c-1.9-1-4.1-2.2-8.3-2.2s-6.4,1.1-8.3,2.2c-1.7,1-3.2,1.7-6.4,1.7v3.9c4.2,0,6.4-1.1,8.3-2.2,1.7-1,3.2-1.7,6.4-1.7s4.7.8,6.4,1.7c1.9,1,4.1,2.2,8.3,2.2s6.4-1.1,8.3-2.2c1.7-1,3.2-1.7,6.4-1.7s4.7.8,6.4,1.7c1.9,1,4.1,2.2,8.3,2.2v-3.9c-3.1,0-4.7-.8-6.4-1.7-1.9-1-4.1-2.2-8.3-2.2Z"/>
      </g>
    </g>
    <g id="Transportation" class="st18">
      <rect class="st7" x="3.3" y="3.3" width="83.4" height="83.4" rx="3.8" ry="3.8"/>
      <g>
        <path class="st2" d="M64.6,47c-.3,0-.9,0-1.4.2-1.2.3-2.4.5-3.4,1.1-1,.5-1.7,1.4-2.3,2.9-.2.5,0,1,0,1.3s.3.3.5.2l7.1-1.5c.7-.2.8-.6.9-1.1,0-.7,0-1.6-.3-2.2-.3-.7-.7-.8-1.2-.8h0ZM64.6,45.1c.9,0,1.6.3,2.1.7s.8,1,1,1.5c.2.7.4,1.8.3,2.9,0,.5-.2,1.1-.6,1.7-.3.5-1,.9-1.7,1l-7.1,1.5c-1,.3-2.1-.3-2.5-1.1s-.5-1.8-.2-2.8c.6-1.8,1.8-3.1,3.1-3.8,1.3-.8,2.7-1,3.9-1.3h0c.7,0,1.2-.2,1.7-.2h0Z"/>
        <path class="st2" d="M25.2,47c.3,0,.9,0,1.4.2,1.2.3,2.4.5,3.4,1.1,1,.5,1.7,1.4,2.3,2.9.2.5,0,1,0,1.3s-.3.3-.5.2l-7.1-1.5c-.7-.2-.8-.6-.9-1.1,0-.7,0-1.6.3-2.2.3-.7.7-.8,1.2-.8h0ZM25.2,45.1c-.9,0-1.6.3-2.1.7s-.8,1-1,1.5c-.2.7-.4,1.8-.3,2.9,0,.5.2,1.1.6,1.7.3.5,1,.9,1.7,1l7.1,1.5c1,.3,2.1-.3,2.5-1.1s.5-1.8.2-2.8c-.6-1.8-1.8-3.1-3.1-3.8-1.3-.8-2.7-1-3.9-1.3h0c-.7,0-1.2-.2-1.7-.2h0Z"/>
        <path class="st2" d="M44.9,26.3c3.4,0,6.6,0,10.3.7.6,0,1,.6,1.4,1.3,1.3,2.4,2.2,5.1,3,7.8-3.5.3-9.5,1-14.6,1s-11.2-.6-14.6-1c.8-2.7,1.7-5.4,3-7.8.3-.7.8-1.1,1.4-1.3,3.1-.7,6.7-.7,10.3-.7h-.2ZM34.3,25.3c-1.3.3-2.1,1.3-2.5,2.2-1.6,2.9-2.6,5.9-3.5,9.2-.2.5.2,1,.7,1.1,3.2.3,10.3,1,15.9,1s12.7-.7,15.9-1c.5,0,.9-.6.7-1.1-1-3.2-1.8-6.4-3.5-9.2-.7-1.1-1.5-2-2.5-2.2-3.8-.7-7.1-.7-10.7-.7s-7.1,0-10.5.7Z"/>
        <path class="st6" d="M62.3,64h6.1v3.3c0,.5-.3.9-.6.9h-4.9c-.3,0-.6-.3-.6-.9,0,0,0-3.3,0-3.3ZM21.5,64h6.1v3.3c0,.5-.3.9-.6.9h-4.9c-.3,0-.6-.3-.6-.9v-3.3ZM44.9,21.8c3.7,0,7.3,0,10.9.3,3.5.4,5,2,6.2,5,1.4,3.3,2.8,7.1,4.2,10.6.2.4.6.7,1,.7h3.7c.9,0,1,.3,1,1,0,1.5-.4,2.6-2.2,3.7-.5.3-.7,1-.4,1.5l.5,1c.7,1.4,1.1,2.9,1.1,4.1v9.1c0,.8-.3,1.7-.6,2.4-.3.6-.7.8-.9.8H20.3c-.2,0-.5-.2-.9-.8-.3-.6-.6-1.6-.6-2.4v-9.1c0-1.1.4-2.6,1.1-4.1l.5-1c.3-.5,0-1.1-.4-1.5-1.7-1-2.3-2.2-2.2-3.7,0-.9.4-1,1-1h3.7c.4,0,.9-.3,1-.7,1.5-3.5,2.8-7.2,4.2-10.6,1.2-3,2.7-4.5,6.2-5,3.6-.4,7.1-.3,10.9-.3h0ZM44.9,19.5c-3.7,0-7.4,0-11.2.4-4.2.5-6.5,3-7.9,6.3-1.4,3.2-2.6,6.7-3.9,9.9h-2.9c-1,0-1.8.3-2.4.9-.6.6-.9,1.5-.9,2.4,0,1.7.9,3.5,2.5,4.8-.8,1.7-1.6,3.8-1.6,5.5v9.1c0,2.3.8,3.7,2.6,4.6v4.1c0,1.6,1.2,3.1,2.9,3.1h4.9c1.7,0,2.9-1.5,2.9-3.1v-3.3h30.2v3.3c0,1.6,1.2,3.1,2.8,3.1h4.9c1.7,0,2.9-1.5,2.9-3.1v-4.1c1.9-.9,2.6-2.7,2.6-4.6v-9.1c0-2.1-.7-3.7-1.6-5.5,1.6-1.3,2.5-3.1,2.5-4.8s-.3-1.7-.9-2.4-1.5-.9-2.4-.9h-3c-1.3-3.2-2.6-6.7-3.9-9.9-1.4-3.3-3.7-5.8-8-6.3-3.7-.4-7.4-.4-11.2-.4h.1Z"/>
        <path class="st2" d="M40.4,55h9.1c.8,0,1.3.6,1.3,1.3s-.6,1.3-1.3,1.3h-9.1c-.8,0-1.3-.6-1.3-1.3s.6-1.3,1.3-1.3ZM40.4,53.1c-1.7,0-3.2,1.5-3.2,3.2s1.5,3.2,3.2,3.2h9.1c1.7,0,3.2-1.5,3.2-3.2s-1.5-3.2-3.2-3.2h-9.1Z"/>
      </g>
    </g>
    <g id="Tourism" class="st18">
      <rect class="st5" x="3.3" y="3.3" width="83.4" height="83.4" rx="3.8" ry="3.8"/>
      <path class="st17" d="M45,16c-16,0-29,13-29,29s13,29,29,29,29-12.8,29-29-12.9-29-29-29ZM45,20.1c7.3,0,13.9,3.2,18.4,8.3h0l-5,3.3c-.5.4-.8.9-.9,1.5l-1.1,8.3v.3l-3.3,6.8c-.4.6-1.5.4-1.5-.3l-.9-8.3c0-.4-.2-.7-.4-1l-3.2-4.9c-.2-.3-.2-.7,0-1l2.1-2.7c.4-.5.5-1.1.4-1.8-.2-.6-.6-1.1-1.1-1.4l-11.2-5.1-.2-.6c2.5-.9,5.2-1.3,7.9-1.3h0ZM48,62.6l-1.2,4.9c-.2.9,0,1.8.9,2.2h0c-.9,0-1.8.2-2.6.2-9.1,0-17.2-5-21.4-12.5h0l2.7-2.4c.4-.3.8-.4,1.2-.2l7.6,3.8c.4.2.8.3,1.2.2l7.6-1.2c.4,0,.8,0,1.1.4l2.7,3.6c.2.3.3.6.2,1ZM53.1,68.4h0l-.2-.2-1.8-1.2.9-3.4c.4-1.5,0-3.2-.9-4.4l-2.7-3.6c-1.1-1.6-3.2-2.4-5.1-2l-6.9,1.1-7-3.5c-1.8-1-4.1-.7-5.8.7l-1.8,1.6c-1-2.6-1.5-5.5-1.5-8.5,0-9.4,5.3-17.7,13.1-21.9l.3,1c.2.6.6,1.1,1.1,1.4l9.7,4.4-.5.7c-1.2,1.7-1.3,4-.2,5.7l3,4.5.8,7.8c.3,2.5,2.4,4.5,4.9,4.5s3.6-1.1,4.4-2.7l3.3-6.8c.3-.5.4-1.1.4-1.6l.9-7.4,4.4-3c2.5,3.9,3.9,8.4,3.9,13.3,0,10.8-7,20-16.7,23.4h0Z"/>
    </g>
    <g id="Service" class="st18">
      <rect class="st11" x="3.3" y="3.3" width="83.4" height="83.4" rx="3.8" ry="3.8"/>
      <path class="st14" d="M67.9,45.8h0c1,0,1.7.8,1.7,1.7v9.2c0,1-.8,1.7-1.7,1.7h-7v-12.6s7,0,7,0ZM28.8,45.8v12.6h-7c-1,0-1.7-.8-1.7-1.7v-9.2c0-1,.8-1.7,1.7-1.7h7ZM44.9,16.6h0c-12.6,0-22.8,10.2-22.8,22.8v2.4h-.3c-3.1,0-5.7,2.6-5.7,5.7v9.2c0,3.1,2.5,5.7,5.7,5.7h9.1c.5,0,1-.2,1.4-.6.3-.3.6-.9.6-1.4v-16.6c0-.5-.2-1-.6-1.5-.3-.3-.9-.6-1.4-.6h-4.7v-2.4c0-10.4,8.4-18.8,18.8-18.8s18.8,8.4,18.8,18.8v2.4h-4.7c-.5,0-1,.2-1.4.6-.3.3-.6.9-.6,1.5v16.6c0,.5.2,1,.6,1.4.3.3.9.6,1.5.6h2.3c-1,1.6-2.2,2.9-3.8,3.6-1,.5-2.3,1-3.8,1.2-.6-.5-1.3-.8-2.1-.8s-.2,0-.3,0l-5.1.4c-1.8.2-3.2,1.7-3,3.6.2,1.7,1.6,3,3.3,3s.2,0,.3,0l5.1-.4c1.2,0,2.3-.9,2.7-1.9h0c1.7-.3,3.4-.9,4.8-1.6,3.5-1.7,5.3-4.8,6.8-7.3h2c3.1,0,5.7-2.6,5.7-5.7v-9.2c0-3.1-2.5-5.7-5.7-5.7h-.3v-2.4c0-12.6-10.2-22.8-22.8-22.8h-.3v.2Z"/>
    </g>
    <g id="Restroom" class="st18">
      <rect class="st8" x="3.3" y="3.3" width="83.4" height="83.4" rx="3.8" ry="3.8"/>
      <g>
        <path class="st16" d="M30.4,36.1c4.7,0,8.5-3.8,8.5-8.5s-3.8-8.5-8.5-8.5-8.5,3.8-8.5,8.5,3.8,8.5,8.5,8.5ZM30.4,22.8c2.7,0,4.8,2.2,4.8,4.9s-2.1,4.9-4.8,4.9-4.8-2.1-4.8-4.9,2.1-4.9,4.8-4.9Z"/>
        <path class="st16" d="M43.1,38.4h-25.4c-.6,0-1.2.4-1.5.8-.4.5-.4,1.2-.2,1.8l12.7,28.8c.3.6,1,1.1,1.7,1.1s1.4-.4,1.7-1.1l12.7-28.8c.3-.5.2-1.2-.2-1.8s-.9-.8-1.5-.8h0ZM30.4,64.6l-9.9-22.6h19.8l-9.9,22.6Z"/>
        <path class="st16" d="M59.6,36.1c4.7,0,8.5-3.8,8.5-8.5s-3.8-8.5-8.5-8.5-8.5,3.8-8.5,8.5,3.8,8.5,8.5,8.5ZM59.6,22.8c2.7,0,4.8,2.2,4.8,4.9s-2.1,4.9-4.8,4.9-4.8-2.1-4.8-4.9,2.1-4.9,4.8-4.9Z"/>
        <path class="st16" d="M74.1,68.4l-12.7-28.8c-.3-.6-1-1.1-1.7-1.1s-1.4.4-1.7,1.1l-12.7,28.8c-.3.5-.2,1.2.2,1.8s.9.8,1.5.8h25.4c.6,0,1.2-.4,1.5-.8.4-.5.4-1.2.2-1.8h0ZM49.7,67.2l9.9-22.6,9.9,22.6h-19.8Z"/>
      </g>
    </g>
    <g id="Recreation" class="st18">
      <rect class="st9" x="3.3" y="3.3" width="83.4" height="83.4" rx="3.8" ry="3.8"/>
      <path class="st15" d="M57.5,22.5l-2.6,1.2h-18.3l-.5-1.1h-3.4l-19.5,43.2v.2l3.4,1.6,1.5-3.3h32.4l1.5,3.3,3.5-1.6-.8-1.8h17.3l1.5,3.3,3.5-1.6-19.5-43.5h0ZM48.7,60.3h-12.5v-27.8l12.5,27.8ZM70.3,60.3h-17.3l-14.7-32.7h17.3l14.7,32.7ZM32.4,32.5v27.8h-12.5l12.5-27.8Z"/>
    </g>
    <g id="Mountain" class="st18">
      <rect class="st3" x="3.3" y="3.3" width="83.4" height="83.4" rx="3.8" ry="3.8"/>
      <path class="st19" d="M77,70.3h0l-16.4-28.1c-.3-.5-.8-.8-1.5-.8h0c-.5,0-1.2.3-1.5.8l-3,5.2-7.9-14.2v-3.9h8.4c.5,0,.8-.2,1.2-.5.3-.3.5-.7.5-1.2v-8.7c0-.5-.2-.9-.5-1.2s-.7-.5-1.2-.5h-10.2c-.9,0-1.6.7-1.6,1.6v14.3l-7.9,14.2-2.8-4.9h0l-.2-.4c-.3-.5-.8-.8-1.5-.8h0c-.5,0-1.2.3-1.5.8l-16.4,28c-.3.5-.3,1.2,0,1.6.3.5.8.8,1.5.8h60.8c.5,0,1.1-.3,1.4-.7s.4-1.1,0-1.6h.2v.2ZM33.7,50.8l-10.4,18.6h-5.7l13.5-23.1s2.6,4.5,2.6,4.5ZM63.1,69.4H27.2l18-32.2,18,32.2h-.1ZM72.6,69.4h-5.7l-10.4-18.6,2.6-4.5,13.5,23.1ZM46.8,26v-5.3h6.8v5.3h-6.8Z"/>
    </g>
    <g id="Commerce">
      <rect class="st4" x="3.3" y="3.3" width="83.4" height="83.4" rx="3.8" ry="3.8"/>
      <g>
        <path class="st12" d="M30.7,30.7h-2.4c-3.1,0-5.8,2.4-6.1,5.6-.8,7.5-2.4,24.5-3.3,32.7-.2,1.7.4,3.5,1.6,4.8,1.1,1.3,2.8,2,4.5,2h40.1c1.7,0,3.4-.7,4.5-2s1.7-3,1.6-4.8l-3.3-32.7c-.3-3.1-2.9-5.6-6.1-5.6h-2.4v-2.1c0-7.9-6.4-14.3-14.3-14.3s-14.3,6.4-14.3,14.3v2.1h0ZM28.3,34.8h33.5c1,0,1.9.8,2,1.8l3.3,32.7c0,.6-.2,1.1-.5,1.6s-1,.7-1.5.7H25c-.6,0-1.1-.3-1.5-.7-.3-.4-.6-1-.5-1.6.8-8.2,2.5-25.2,3.3-32.7,0-1,1-1.8,2-1.8ZM55.2,30.7v-2.1c0-5.6-4.6-10.2-10.2-10.2h0c-5.6,0-10.2,4.6-10.2,10.2v2.1h20.5,0Z"/>
        <path class="st12" d="M45,59.3c-7.9,0-14.3-6.4-14.3-14.3v-4.1c0-1.1,1-2.1,2.1-2.1s2.1,1,2.1,2.1v4.1c0,5.6,4.6,10.2,10.2,10.2h0c5.6,0,10.2-4.6,10.2-10.2v-4.1c0-1.1,1-2.1,2.1-2.1s2.1,1,2.1,2.1v4.1c0,7.9-6.4,14.3-14.3,14.3,0,0-.2,0-.2,0Z"/>
      </g>
    </g>
  </g>
  <g id="Reset_x5F_Logo" class="st18">
    <path class="st10" d="M69.8,30.8c-.9-1.3-2.6-1.6-3.8-.7-1.3.9-1.6,2.7-.7,4,3.3,4.6,5,10.4,4.4,16.6-1.1,11.7-10.5,21.1-22.2,22.3-15.5,1.5-28.5-11.3-27.2-26.8,1.1-12.5,11.6-22.3,24.2-22.6v4.5c0,1.6,1.8,2.6,3.2,1.8l11.7-7.3c1.3-.9,1.3-2.8,0-3.5l-11.7-7.3c-1.4-.9-3.2.1-3.2,1.8v4.5c-15.2.2-27.8,11.4-29.6,26.6-2.3,18.9,12.9,34.9,31.5,34.1,15.5-.7,28.1-13.3,28.9-28.7.4-7.2-1.8-13.8-5.5-19.1v-.2Z"/>
  </g>
</svg>